<mxfile host="app.diagrams.net" modified="2023-04-25T11:03:23.984Z" agent="Mozilla/5.0 (Windows NT 10.0; Win64; x64) AppleWebKit/537.36 (KHTML, like Gecko) Chrome/112.0.0.0 Safari/537.36" etag="Ujvsfy_0FGNKRbeo-w6n" version="21.2.1" type="device">
  <diagram name="Page-1" id="na7zzv-fnRlMRzOz7OdL">
    <mxGraphModel dx="1001" dy="731" grid="1" gridSize="10" guides="1" tooltips="1" connect="1" arrows="1" fold="1" page="1" pageScale="1" pageWidth="850" pageHeight="1100" math="0" shadow="0">
      <root>
        <mxCell id="0" />
        <mxCell id="1" parent="0" />
        <mxCell id="4e8PmtW7Q3v7DfF4d8d9-4" value="LangChain" style="outlineConnect=0;gradientColor=none;html=1;whiteSpace=wrap;fontSize=12;fontStyle=0;strokeColor=#858B94;fillColor=#f5fff9;verticalAlign=top;align=center;fontColor=#858B94;dashed=1;spacingTop=3;" parent="1" vertex="1">
          <mxGeometry x="50" y="170" width="480" height="90" as="geometry" />
        </mxCell>
        <mxCell id="4e8PmtW7Q3v7DfF4d8d9-2" value="OpenAI" style="outlineConnect=0;gradientColor=none;html=1;whiteSpace=wrap;fontSize=12;fontStyle=0;strokeColor=#879196;fillColor=#FFFFF2;verticalAlign=top;align=center;fontColor=#879196;dashed=1;spacingTop=3;" parent="1" vertex="1">
          <mxGeometry x="290" y="270" width="239.99" height="140" as="geometry" />
        </mxCell>
        <mxCell id="4e8PmtW7Q3v7DfF4d8d9-1" value="" style="shape=image;verticalLabelPosition=bottom;labelBackgroundColor=default;verticalAlign=top;aspect=fixed;imageAspect=0;image=data:image/svg+xml,PHN2ZyB4bWxucz0iaHR0cDovL3d3dy53My5vcmcvMjAwMC9zdmciIHJvbGU9ImltZyIgdmlld0JveD0iMCAwIDI0IDI0IiBoZWlnaHQ9IjgwMHB4IiB3aWR0aD0iODAwcHgiIGZpbGw9IiMwMDAwMDAiPjx0aXRsZT5PcGVuQUkgaWNvbjwvdGl0bGU+PHBhdGggZD0iTTIyLjI4MTkgOS44MjExYTUuOTg0NyA1Ljk4NDcgMCAwIDAtLjUxNTctNC45MTA4IDYuMDQ2MiA2LjA0NjIgMCAwIDAtNi41MDk4LTIuOUE2LjA2NTEgNi4wNjUxIDAgMCAwIDQuOTgwNyA0LjE4MThhNS45ODQ3IDUuOTg0NyAwIDAgMC0zLjk5NzcgMi45IDYuMDQ2MiA2LjA0NjIgMCAwIDAgLjc0MjcgNy4wOTY2IDUuOTggNS45OCAwIDAgMCAuNTExIDQuOTEwNyA2LjA1MSA2LjA1MSAwIDAgMCA2LjUxNDYgMi45MDAxQTUuOTg0NyA1Ljk4NDcgMCAwIDAgMTMuMjU5OSAyNGE2LjA1NTcgNi4wNTU3IDAgMCAwIDUuNzcxOC00LjIwNTggNS45ODk0IDUuOTg5NCAwIDAgMCAzLjk5NzctMi45MDAxIDYuMDU1NyA2LjA1NTcgMCAwIDAtLjc0NzUtNy4wNzI5em0tOS4wMjIgMTIuNjA4MWE0LjQ3NTUgNC40NzU1IDAgMCAxLTIuODc2NC0xLjA0MDhsLjE0MTktLjA4MDQgNC43NzgzLTIuNzU4MmEuNzk0OC43OTQ4IDAgMCAwIC4zOTI3LS42ODEzdi02LjczNjlsMi4wMiAxLjE2ODZhLjA3MS4wNzEgMCAwIDEgLjAzOC4wNTJ2NS41ODI2YTQuNTA0IDQuNTA0IDAgMCAxLTQuNDk0NSA0LjQ5NDR6bS05LjY2MDctNC4xMjU0YTQuNDcwOCA0LjQ3MDggMCAwIDEtLjUzNDYtMy4wMTM3bC4xNDIuMDg1MiA0Ljc4MyAyLjc1ODJhLjc3MTIuNzcxMiAwIDAgMCAuNzgwNiAwbDUuODQyOC0zLjM2ODV2Mi4zMzI0YS4wODA0LjA4MDQgMCAwIDEtLjAzMzIuMDYxNUw5Ljc0IDE5Ljk1MDJhNC40OTkyIDQuNDk5MiAwIDAgMS02LjE0MDgtMS42NDY0ek0yLjM0MDggNy44OTU2YTQuNDg1IDQuNDg1IDAgMCAxIDIuMzY1NS0xLjk3MjhWMTEuNmEuNzY2NC43NjY0IDAgMCAwIC4zODc5LjY3NjVsNS44MTQ0IDMuMzU0My0yLjAyMDEgMS4xNjg1YS4wNzU3LjA3NTcgMCAwIDEtLjA3MSAwbC00LjgzMDMtMi43ODY1QTQuNTA0IDQuNTA0IDAgMCAxIDIuMzQwOCA3Ljg3MnptMTYuNTk2MyAzLjg1NThMMTMuMTAzOCA4LjM2NCAxNS4xMTkyIDcuMmEuMDc1Ny4wNzU3IDAgMCAxIC4wNzEgMGw0LjgzMDMgMi43OTEzYTQuNDk0NCA0LjQ5NDQgMCAwIDEtLjY3NjUgOC4xMDQydi01LjY3NzJhLjc5Ljc5IDAgMCAwLS40MDctLjY2N3ptMi4wMTA3LTMuMDIzMWwtLjE0Mi0uMDg1Mi00Ljc3MzUtMi43ODE4YS43NzU5Ljc3NTkgMCAwIDAtLjc4NTQgMEw5LjQwOSA5LjIyOTdWNi44OTc0YS4wNjYyLjA2NjIgMCAwIDEgLjAyODQtLjA2MTVsNC44MzAzLTIuNzg2NmE0LjQ5OTIgNC40OTkyIDAgMCAxIDYuNjgwMiA0LjY2ek04LjMwNjUgMTIuODYzbC0yLjAyLTEuMTYzOGEuMDgwNC4wODA0IDAgMCAxLS4wMzgtLjA1NjdWNi4wNzQyYTQuNDk5MiA0LjQ5OTIgMCAwIDEgNy4zNzU3LTMuNDUzN2wtLjE0Mi4wODA1TDguNzA0IDUuNDU5YS43OTQ4Ljc5NDggMCAwIDAtLjM5MjcuNjgxM3ptMS4wOTc2LTIuMzY1NGwyLjYwMi0xLjQ5OTggMi42MDY5IDEuNDk5OHYyLjk5OTRsLTIuNTk3NCAxLjQ5OTctMi42MDY3LTEuNDk5N1oiLz48L3N2Zz4=;" parent="1" vertex="1">
          <mxGeometry x="384.99" y="320" width="60" height="60" as="geometry" />
        </mxCell>
        <mxCell id="4e8PmtW7Q3v7DfF4d8d9-8" value="Custom Documentations" style="outlineConnect=0;gradientColor=none;html=1;whiteSpace=wrap;fontSize=12;fontStyle=0;strokeColor=#879196;fillColor=#F7FEFF;verticalAlign=top;align=center;fontColor=#879196;dashed=1;spacingTop=3;" parent="1" vertex="1">
          <mxGeometry x="49.989999999999995" y="270" width="230.01" height="140" as="geometry" />
        </mxCell>
        <mxCell id="4e8PmtW7Q3v7DfF4d8d9-9" value="" style="shape=image;html=1;verticalAlign=top;verticalLabelPosition=bottom;labelBackgroundColor=#ffffff;imageAspect=0;aspect=fixed;image=https://cdn0.iconfinder.com/data/icons/logos-brands/24/logo_brand_brands_logos_docs_google-128.png" parent="1" vertex="1">
          <mxGeometry x="202.99" y="309.5" width="38" height="38" as="geometry" />
        </mxCell>
        <mxCell id="4e8PmtW7Q3v7DfF4d8d9-10" value="" style="shape=image;html=1;verticalAlign=top;verticalLabelPosition=bottom;labelBackgroundColor=#ffffff;imageAspect=0;aspect=fixed;image=https://cdn0.iconfinder.com/data/icons/logos-brands/24/logo_brand_brands_logos_docs_google-128.png" parent="1" vertex="1">
          <mxGeometry x="164.99" y="309.5" width="38" height="38" as="geometry" />
        </mxCell>
        <mxCell id="4e8PmtW7Q3v7DfF4d8d9-11" value="" style="shape=image;html=1;verticalAlign=top;verticalLabelPosition=bottom;labelBackgroundColor=#ffffff;imageAspect=0;aspect=fixed;image=https://cdn0.iconfinder.com/data/icons/logos-brands/24/logo_brand_brands_logos_docs_google-128.png" parent="1" vertex="1">
          <mxGeometry x="126.99000000000001" y="309.5" width="38" height="38" as="geometry" />
        </mxCell>
        <mxCell id="4e8PmtW7Q3v7DfF4d8d9-12" value="" style="shape=image;html=1;verticalAlign=top;verticalLabelPosition=bottom;labelBackgroundColor=#ffffff;imageAspect=0;aspect=fixed;image=https://cdn0.iconfinder.com/data/icons/logos-brands/24/logo_brand_brands_logos_docs_google-128.png" parent="1" vertex="1">
          <mxGeometry x="202.99" y="352.5" width="38" height="38" as="geometry" />
        </mxCell>
        <mxCell id="4e8PmtW7Q3v7DfF4d8d9-13" value="" style="shape=image;html=1;verticalAlign=top;verticalLabelPosition=bottom;labelBackgroundColor=#ffffff;imageAspect=0;aspect=fixed;image=https://cdn0.iconfinder.com/data/icons/logos-brands/24/logo_brand_brands_logos_docs_google-128.png" parent="1" vertex="1">
          <mxGeometry x="164.99" y="352.5" width="38" height="38" as="geometry" />
        </mxCell>
        <mxCell id="4e8PmtW7Q3v7DfF4d8d9-14" value="" style="shape=image;html=1;verticalAlign=top;verticalLabelPosition=bottom;labelBackgroundColor=#ffffff;imageAspect=0;aspect=fixed;image=https://cdn0.iconfinder.com/data/icons/logos-brands/24/logo_brand_brands_logos_docs_google-128.png" parent="1" vertex="1">
          <mxGeometry x="126.99000000000001" y="352.5" width="38" height="38" as="geometry" />
        </mxCell>
        <mxCell id="4e8PmtW7Q3v7DfF4d8d9-15" value="" style="shape=image;html=1;verticalAlign=top;verticalLabelPosition=bottom;labelBackgroundColor=#ffffff;imageAspect=0;aspect=fixed;image=https://cdn0.iconfinder.com/data/icons/logos-brands/24/logo_brand_brands_logos_docs_google-128.png" parent="1" vertex="1">
          <mxGeometry x="88.99000000000001" y="309.5" width="38" height="38" as="geometry" />
        </mxCell>
        <mxCell id="4e8PmtW7Q3v7DfF4d8d9-16" value="" style="shape=image;html=1;verticalAlign=top;verticalLabelPosition=bottom;labelBackgroundColor=#ffffff;imageAspect=0;aspect=fixed;image=https://cdn0.iconfinder.com/data/icons/logos-brands/24/logo_brand_brands_logos_docs_google-128.png" parent="1" vertex="1">
          <mxGeometry x="88.99000000000001" y="352.5" width="38" height="38" as="geometry" />
        </mxCell>
        <mxCell id="4e8PmtW7Q3v7DfF4d8d9-17" value="&lt;font style=&quot;font-size: 36px;&quot;&gt;🦜️🔗&lt;/font&gt;" style="text;whiteSpace=wrap;html=1;" parent="1" vertex="1">
          <mxGeometry x="108.12" y="182.5" width="113.75" height="65" as="geometry" />
        </mxCell>
        <mxCell id="4e8PmtW7Q3v7DfF4d8d9-26" value="Flask" style="outlineConnect=0;gradientColor=none;html=1;whiteSpace=wrap;fontSize=12;fontStyle=0;strokeColor=#858B94;fillColor=#FFF0F0;verticalAlign=top;align=center;fontColor=#858B94;dashed=1;spacingTop=3;" parent="1" vertex="1">
          <mxGeometry x="50" y="69.99999999999999" width="480" height="90" as="geometry" />
        </mxCell>
        <mxCell id="4e8PmtW7Q3v7DfF4d8d9-25" value="" style="shape=image;verticalLabelPosition=bottom;labelBackgroundColor=default;verticalAlign=top;aspect=fixed;imageAspect=0;image=data:image/svg+xml,PHN2ZyB4bWxuczp4bGluaz0iaHR0cDovL3d3dy53My5vcmcvMTk5OS94bGluayIgeG1sbnM9Imh0dHA6Ly93d3cudzMub3JnLzIwMDAvc3ZnIiB4bWw6c3BhY2U9InByZXNlcnZlIiB2aWV3Qm94PSIwIDAgNTEyIDUxMiIgaGVpZ2h0PSI4MDBweCIgd2lkdGg9IjgwMHB4IiB2ZXJzaW9uPSIxLjEiIGZpbGw9IiMwMDAwMDAiPiYjeGE7JiN4YTs8ZyBpZD0iZTZjNmI1M2QzYzgxNjBiMjJkYWQzNWEwZjcxMDNlY2MiPiYjeGE7JiN4YTs8cGF0aCBkPSJNMTQ1Ljk3MywxMjQuNDgyYy0xLjc2Ni0xNS4yOTksMTIuMDAzLTguODE0LDEwLjI0NCwwLjQxJiMxMDsmIzk7JiM5O0MxNTMuNjMzLDEyNy4zNSwxNDguODYsMTI1LjMzNCwxNDUuOTczLDEyNC40ODJ6IE0xNjIuMzYzLDEyMS42MTNjMy40NjgtMC4zNTQsNi43NzQtMC44NzQsNy43ODctMy42ODcmIzEwOyYjOTsmIzk7Yy00Ljc5Ny0yLjk1Ny0xMS45NjUsNC4zMzktOS4wMTYsNy43ODdDMTYyLjc3MSwxMjUuNTc0LDE2MS4zMjMsMTIyLjM1MSwxNjIuMzYzLDEyMS42MTN6IE0xMTYuNDY4LDEzMS4wMzgmIzEwOyYjOTsmIzk7YzIuODg4LTEuMzQzLDcuNjMzLTAuODM2LDkuMDE2LTMuNjg3Yy04LjU5Ni0yLjk5NC0yNC4wNzYtMC43ODQtMjYuNjM4LDQuOTE3QzEwNS4zOTksMTMxLjg2MywxMTAuODc5LDEyNi42NjMsMTE2LjQ2OCwxMzEuMDM4eiYjMTA7JiM5OyYjOTsgTTk3LjIwNywxMzIuNjc5Yy0xLjg2Mi0wLjM5MS0yLjU4LDEuNzI0LTEuNjM4LDIuODY3Qzk3LjAyNCwxMzUuNDk4LDk3LjIxOCwxMzQuMTksOTcuMjA3LDEzMi42Nzl6IE05Mi42OTksMTQwLjg3NSYjMTA7JiM5OyYjOTtjLTAuMjYyLTMuOTA5LTkuNzE4LTcuMDMtMTAuNjUzLTEuNjM5QzgyLjg2NCwxNDIuMjk3LDkwLjQ5MSwxNDQuMjY2LDkyLjY5OSwxNDAuODc1eiBNNzYuNzE5LDEzNy4xODgmIzEwOyYjOTsmIzk7Yy0xLjk1MywwLjA5MS0yLjk1NywxLjE0Mi00LjA5OSwyLjA0OEM3NC4xMDYsMTQwLjEwMiw3Ny4zOTgsMTM5Ljc5Miw3Ni43MTksMTM3LjE4OHogTTcxLjgwMywxNDguMjUmIzEwOyYjOTsmIzk7YzcuMjE4LTAuNTA3LDkuNDE1LDYuMTMsMTUuNTY5LDUuMzI3Qzg4LjUxOSwxNDYuNDMzLDczLjgzNywxMzYuNjA2LDcxLjgwMywxNDguMjV6IE0xNjkuMzI5LDE4My44OTkmIzEwOyYjOTsmIzk7Yy0yLjE1Mi03LjE0Miw0LjQzOC0xMy4yNzIsMC40MDktMTguODUxYy01LjU3OCwwLjQ0NS0xMC40MDIsMjYuMzM0LTIuNDU4LDI2LjIzYzUuNzA0LTAuMDc5LDcuNzE1LTE1LjczOCw4LjE5NC0yMC44OTgmIzEwOyYjOTsmIzk7QzE3MS4yOTgsMTcyLjc1NCwxNzMuMTE3LDE4MS4xMzIsMTY5LjMyOSwxODMuODk5eiBNMTAwLjg5NiwxODEuMDM0YzAuMTI0LTEuMDgzLTAuNTY4LTEuMzQ3LTEuNjM5LTEuMjMzJiMxMDsmIzk7JiM5O0M5OS4yODQsMTgwLjkwNywxMDAuMTkzLDE4MS43NzIsMTAwLjg5NiwxODEuMDM0eiBNMTIwLjk3NiwxOTIuOTE3YzAuMDc5LTIuNTM5LTAuMDIxLTQuODk3LTIuMDQ4LTUuMzI3JiMxMDsmIzk7JiM5O2MtMS41NDMtMC4xNzUtMS40NTEsMS4yODEtMi40NiwxLjY0MUMxMTcuMDMxLDE5MS4zOTcsMTE4LjE3NSwxOTIuOTg4LDEyMC45NzYsMTkyLjkxN3ogTTEwMS4zMDYsMjA2LjAzMSYjMTA7JiM5OyYjOTtjNy44NTcsMC44ODQsMTMuMTE4LDYuNTUyLDIwLjQ4OSw2LjU1NGMtNS44NzgtMy45NTctMTEuOTg1LTcuNjgzLTIxLjMwOS04LjE5NEMxMDAuMTg5LDIwNS41MDksMTAxLjMsMjA1LjIxNiwxMDEuMzA2LDIwNi4wMzF6JiMxMDsmIzk7JiM5OyBNMTYzLjE4MywyMTIuMTc3Yy0wLjYxMS0yLjgwNS0xLjgyOC01LjAwNS0zLjI3Ny02Ljk2OEMxNjAuNDM5LDIwOC4wODksMTYxLjE3NCwyMTAuNzY4LDE2My4xODMsMjEyLjE3N3ogTTExOC4xMDYsMjIxLjE5MSYjMTA7JiM5OyYjOTtjLTUuMTQzLTYuODgyLTEzLjMzNy0xMi44NzktMjIuNTM3LTE0LjM0M0M5Ni44NjgsMjE3Ljg0MSwxMDkuMDg4LDIxNy45MiwxMTguMTA2LDIyMS4xOTF6IE0xMDQuMTc1LDIyMy42NDgmIzEwOyYjOTsmIzk7Yy0zLjUxMi01LjkxMS05LjUzMy05LjMxNy0xNi44MDMtMTEuNDcxQzkxLjQ1OCwyMTcuMjU1LDk1LjIwMSwyMjQuODIzLDEwNC4xNzUsMjIzLjY0OHogTTg1LjMyNCwyMTcuOTE0JiMxMDsmIzk7JiM5O2MxLjM5OSwyLjQyOSw0LjkxNiw0LjkxMiw0LjA5OSw4LjE5NWMtMy41OTMtMS4wNS01LjM0LTMuOTQ5LTkuMDE2LTQuOTE3YzEuOTUyLDIuNzExLDkuNDAyLDE0LjcyOSwxMy45MzEsMTQuMzQ1JiMxMDsmIzk7JiM5O2MyLjg5MS0wLjI1LDQuMTk4LTMuNDQxLDMuNjg4LTguNjA2Qzk1LjgxMSwyMjIuMTc2LDg4Ljc2LDIyMC4wNzgsODUuMzI0LDIxNy45MTR6IE0xMDYuMjIzLDIyOC41NjgmIzEwOyYjOTsmIzk7YzAuOTExLDIuNTA1LDEuMjMxLDUuNTk4LDQuNTA5LDUuNzM1QzExMC4xNzQsMjMxLjQ0OCwxMDguNTA2LDIyOS42OTksMTA2LjIyMywyMjguNTY4eiBNMTAzLjM1NCwyMjkuNzk5JiMxMDsmIzk7JiM5O2MtMS41MjgtMC4xNjctMi40MDMsMC4zMjQtMi40NTcsMS42MzZjMC40NTksMC4wOSwwLjYzOCwwLjQ1NCwwLjgxOCwwLjgxOUMxMDMuMDI1LDIzMi4yMDMsMTAzLjUyMSwyMzEuMzI3LDEwMy4zNTQsMjI5Ljc5OXomIzEwOyYjOTsmIzk7IE0xNzMuNDI3LDIzOS4yMjJjMC40MjctMi4zMTYsMC44NjEtNi43NzgsMC05LjAxNkMxNzIuOTAxLDIzMi41MDgsMTcwLjkyMiwyMzcuNjg2LDE3My40MjcsMjM5LjIyMnogTTE0NC43NDMsMjMwLjYxNiYjMTA7JiM5OyYjOTtjMC4zMTMsMi40MjItMC44NTgsNi4zMjMsMS4yMjksNi45N0MxNDYuMDYzLDIzNS43OTMsMTQ2LjQ4MSwyMzEuNzU1LDE0NC43NDMsMjMwLjYxNnogTTE2NC4wMDIsMjQwLjA0MiYjMTA7JiM5OyYjOTtjLTEuMTg5LTEuMDU0LTIuODk1LDAuNTM5LTMuNjg4LTAuNDA4Yy0wLjgzOC0yLjcxMy0wLjQ5MS02LjYxLTIuODY4LTcuNzg3Yy0wLjI3MSwwLTAuNTQ2LDAtMC44MTgsMCYjMTA7JiM5OyYjOTtjLTMuMzc1LDYuOTktMy4wNDIsMjIuMDA3LDIuODY3LDI1LjgxNGMxLjExNiwxLjg5MSwxLjIyNSw0Ljc4Nyw0LjA5OCw0LjkyYzIuMzYyLTEuODc1LDIuOTQyLTUuNTI0LDMuMjc5LTkuNDI4JiMxMDsmIzk7JiM5O0MxNjEuNzQzLDI1Mi4wNzYsMTY2LjUyMSwyNDMuMjM1LDE2NC4wMDIsMjQwLjA0MnogTTE3Ni4yOTcsMjQ0LjU0N2MwLjUwNS0zLjYyOCwzLjYwNy04LjkwNSwxLjIyOS0xMi43JiMxMDsmIzk7JiM5O0MxNzYuNzQxLDIzNS40MzgsMTc1LjI1NSwyNDAuNDk5LDE3Ni4yOTcsMjQ0LjU0N3ogTTEwNC4xNzUsMjQ3LjgzYzAuNjUzLTEuODczLDAuMTQtNS4wNS0xLjIzLTYuMTQ4JiMxMDsmIzk7JiM5O0MxMDEuOTg5LDI0My40NzYsMTAxLjQzMywyNDcuNjA4LDEwNC4xNzUsMjQ3LjgzeiBNMTExLjU1LDI0OS40NjdjMS42NTUsMS4wNzcsMS43ODIsMy42OCw0LjA5OSw0LjA5OCYjMTA7JiM5OyYjOTtDMTE4LjUzMiwyNDkuODg1LDExMy4wNjMsMjQzLjM5OSwxMTEuNTUsMjQ5LjQ2N3ogTTE4MS42MjMsMjU3LjY2MWMwLjAwMywxLjI1Ni0xLjY0MywyLjk3NC0wLjQwOSw0LjA5NyYjMTA7JiM5OyYjOTtDMTgxLjQ1MSwyNjAuNzQzLDE4Mi42OTgsMjU4LjYzMSwxODEuNjIzLDI1Ny42NjF6IE0xODUuMzEsMjczLjY0M2MtMC4wMTctMS44OTIsMC4yMzEtNC4wNS0wLjgxOC00LjkxNSYjMTA7JiM5OyYjOTtDMTg0LjMwOCwyNzAuMTg3LDE4My4yMjcsMjczLjQxOCwxODUuMzEsMjczLjY0M3ogTTEzMy4yNjksMjkwLjQ0N2MwLjI0MywxLjUyNiwwLjQ5MiwzLjA1NywyLjA0OCwzLjI3NyYjMTA7JiM5OyYjOTtDMTM2LjMyMiwyOTIuMzE4LDEzNS41OCwyODkuODI4LDEzMy4yNjksMjkwLjQ0N3ogTTE1MS43MDksMjkyLjQ5N2MwLjU3LDEuMDgyLDIuMjA4LDMuMjMxLDMuMjc3LDIuNDU0JiMxMDsmIzk7JiM5O0MxNTQuMDM4LDI5NC4yNTIsMTUyLjk0NCwyOTEuNTUsMTUxLjcwOSwyOTIuNDk3eiBNMTkwLjYzNywyOTcuMDA1Yy0xLjE1MSw0Ljg3OSwxLjU3NCw5LjMyNCwzLjY4OSwxMi4yOTMmIzEwOyYjOTsmIzk7QzE5NS4xOTIsMzA0LjU0MSwxOTUuMTExLDI5Ny43MjksMTkwLjYzNywyOTcuMDA1eiBNMjAwLjg4NCwzMjguNTUyYzAuNjE5LTEuMjM5LDAuODM4LTUuMDU3LTAuNDEtNS43MyYjMTA7JiM5OyYjOTtDMTk5LjM5NSwzMjQuMzAyLDE5OC40MzMsMzI3Ljg0NSwyMDAuODg0LDMyOC41NTJ6IE0yMTkuMzIsMzQ4LjIyNmMtMC41OTMtMy4wMTEtMi45NTItNi4yNjMtNS4zMjUtNi4xNSYjMTA7JiM5OyYjOTtDMjE0LjgyNSwzNDUuMDY5LDIxNC45NjksMzQ4Ljc1NCwyMTkuMzIsMzQ4LjIyNnogTTIyMy4wMTIsMzUzLjk2MWMwLjAxNywxLjg5Ni0wLjIyOSw0LjA1OSwwLjgxOCw0LjkxNSYjMTA7JiM5OyYjOTtDMjIzLjg4MywzNTYuOTE3LDIyMy44NTUsMzU1LjAyOSwyMjMuMDEyLDM1My45NjF6IE04Ny43ODIsMzU0LjM3MmMwLjAwNiwxLjUwMSwwLjgwOSwyLjE5NiwxLjY0MSwyLjg2OSYjMTA7JiM5OyYjOTtDODkuMjU5LDM1NS44OTgsODkuMDY3LDM1NC41OTMsODcuNzgyLDM1NC4zNzJ6IE0yMzcuNzY0LDM3Ni45MDdjLTEuMDA5LTcuNzI3LTUuMDczLTEyLjQwNC0xMC4yNDQtMTUuOTc3JiMxMDsmIzk7JiM5O0MyMjguMjYsMzY4LjkyNywyMzIuMTc5LDM3My43NTUsMjM3Ljc2NCwzNzYuOTA3eiBNMzAzLjc0LDQxNy40NzhjLTAuMjQ5LTAuMjMyLTEuOTQ2LTAuOTU2LTIuMDUsMCYjMTA7JiM5OyYjOTtDMzAyLjMwNiw0MTcuOTUyLDMwMy40MTYsNDE4LjkxNywzMDMuNzQsNDE3LjQ3OHogTTUxMS41MDEsNDQ3LjgwMmMwLDEuNTA2LDAsMy4wMDMsMCw0LjUwOGMtMC42NjYsMS4zODUtMC44ODIsMy4yMTUtMS4yMzEsNC45MTYmIzEwOyYjOTsmIzk7Yy0xMS4zOTUsNy4zMTgtMzIuODAzLDQuNjI0LTQyLjIwOSwxMy45MzVjLTE2LjQ5Ny04Ljg4Ny0zMS44MjksNS4xMTEtNDkuMTcsNi41NTljLTIuODY1LDAuMjM2LTYuMDUxLTAuMjQxLTkuMDIxLDAmIzEwOyYjOTsmIzk7Yy0xMC4yNDYsMC44MjctMjAuMjUyLDMuMjIzLTMwLjczMSw0LjA5NmMtMTAuNzQ1LDAuODk1LTIxLjUxMiwxLjU1MS0zMi43ODEsMi4wNWMtNC4xMDEsMC04LjE5NiwwLTEyLjI5MywwJiMxMDsmIzk7JiM5O2MtNTAuODI1LTIuNjY5LTEwMS4wNzctOS41MDYtMTM4LjUwOC0yNi4yMjhjLTE4LjY2MS04LjMzOC0zNS44MzgtMTguNTY3LTUxLjYzMi0zMC43MzVjLTE1LjM3LTExLjgzNS0zMS4xNDctMjQuOTkzLTQyLjIxLTM5Ljc0NyYjMTA7JiM5OyYjOTtjLTExLjc3OC0xNS43MTEtMjMuNTYyLTMwLjk4OS0zNC4wMTItNDguMzUyYy0xMC4wODEtMTYuNzU5LTE5LjUwNC0zNC40MTItMjcuODY0LTU0LjA5NCYjMTA7JiM5OyYjOTtjLTguMjQ3LTE5LjQwOC0xNC4xMjMtMzguNjEzLTE5LjY3Mi02Mi4yODdjLTMuNjI3LTE1LjQ4NC03LjQ1NS0zMy4wMTUtMTMuOTMyLTQ3LjUzNGMtMi41MjItNS42NTQtNS40NTgtMTAuMjgyLTUuNzM2LTE1LjU3NCYjMTA7JiM5OyYjOTtjMC0xLjIyNywwLTIuNDYsMC0zLjY4N2MyLjAyMS0xNy4yMTIsMTUuNDA3LTI3LjIwMywzMS4xNDMtMzEuOTY1YzMuOTQtMS4xOTEsNy43NzEtMi4zMjksMTEuNDc0LTQuNTA4JiMxMDsmIzk7JiM5O2MwLjI0MS0wLjEzOSwyLjYwMi0wLjM4LDEuNjQxLTEuNjM4Yy03LjAxMS0xLjY4Ny0xMi43NzksOC42MzUtMjAuNDg5LDUuNzM3Yy02Ljg0NS0yLjU3NC0yLjkwNC0xMy4xNzIsNC41MDgtMTYuMzkxJiMxMDsmIzk7JiM5O2MzLjQ2LTEuNTAzLDEwLjMzLTEuODk0LDEzLjUyMS0zLjY4OGM1LjUwMi0zLjA5Miw3Ljk5OS05LjYyNSw2Ljk2OC0xNS41NzJjLTAuNjExLTMuNTE0LTQuMjU4LTUuMzY0LTQuMDk4LTguMTk2JiMxMDsmIzk7JiM5O2MwLjIyNC0zLjk0OSw3LjI4NS03LjM4MywxMC42NTMtOS44MzVjNC4xMjEtMi45OTksOC45OTktNi43NDUsOC42MDYtMTEuNDc0Yy0wLjQxNC00Ljk0LTYuMjI0LTYuNTE0LTkuMDE2LTEwLjI0NCYjMTA7JiM5OyYjOTtDNTEuMDI3LDQyLDUwLjMzMiwzMy4yNSw1Ny40NTgsMjkuODIxYzcuNDcxLTMuNTk1LDIxLjM5LTEuNjM2LDIyLjk0OSw3Ljc4N2MxLjM3NCw4LjMwNS00LjUyMiwxMS40NjktMi4wNTEsMTcuNjImIzEwOyYjOTsmIzk7YzQuNjA0LDExLjQ0Niw0MC40MDktNi42NzIsMzEuNTU2LDE3LjIxMmM3Ljg3NCwxMi4zNDMsMzguNjQ1LDEuNzg0LDM5LjMzOSwyMS4zMDljMTIuODM0LDAuMjU4LDE4LjczMiw5Ljk5NywyOS4wOTQsMTMuOTMzJiMxMDsmIzk7JiM5O2MyLjc3NywxLjA1NCw2LjA4NCwxLjA1NCw5LjAxNiwyLjA0OGMxNy40NzYsNS45NCwzOS4xMzIsMTIuMzEyLDQ2LjMwNSwyOS4wOTVjLTYuNDgyLDQuMzY3LTE1LjMyOCwxLjQ0My0yMi45NDYtMS4yMjkmIzEwOyYjOTsmIzk7Yy02LjYyNy0yLjMyNy0xNi4yODctNi45MzUtMjIuOTQ5LTQuMDk5Yy02LjYwNSwyLjgxMy02LjI1MiwxNC4wOTgtNS4zMjcsMjUuNDA1YzIuNDYsMzAuMTAyLDMuOTAzLDYxLjE1MSw4LjE5NCw4OC4xMDQmIzEwOyYjOTsmIzk7YzUuOTkzLDM3LjYyMywxOC44MDMsNjcuNzU2LDM2Ljg4Myw5MS4zODRjMTcuNDksMjIuODU5LDM4LjAzNyw0Ni43OTYsNjQuNzQzLDYzLjUxOGMyMi41MzUsMTQuMTA1LDQ3Ljg1MywyNS4yMzQsNzkuOTEsMzIuMzcmIzEwOyYjOTsmIzk7YzQuNzU0LDEuMDYxLDEwLjUwMSwzLjM3NywxMy4xMTIsMi44NjljMy44NzEtMC43NDQsMTIuMjAxLTEyLjAwMSwxNS4xNjYtMTQuNzVjNy4wNDktNi41NTQsMTYuNTM0LTE1LjcyNCwyNi42MzEtNy43ODkmIzEwOyYjOTsmIzk7Yy0xLjM3MiwxMC45MjUtMTEuMTYxLDEzLjQzMy0xMy41MjMsMjMuMzYyYzYuMDcxLDMuODYzLDEyLjUwOSwwLjM2NiwyMC4wODIsMC44MTVjOC44MTIsMC41MjQsMTUuNTY5LDUuNTc3LDIyLjk1MSw0LjUwOCYjMTA7JiM5OyYjOTtjNC43MTEtMC42ODIsNy4wNjktNC4xOTEsMTAuNjUzLTYuNTU0QzQ3NS4zODgsNDQ4LjY0Miw1MDYuNzgsNDMzLjE0Nyw1MTEuNTAxLDQ0Ny44MDJ6IE00MjIuNTc0LDQxNy40NzgmIzEwOyYjOTsmIzk7Yy0wLjE3NC0xLjMyMiwwLjU0MS0zLjU0My0wLjgxOC0zLjY4NEM0MjAuNTc0LDQxNC4zOTMsNDE5LjQwNiw0MTguMTYsNDIyLjU3NCw0MTcuNDc4eiBNMjE2LjQ1NywxMjguOTkmIzEwOyYjOTsmIzk7YzQuMDE0LDIuNDA0LDcuNTQ4LDUuMjkyLDExLjA2Myw4LjE5OWMyLjExNi02LjIzMS0zLjk1Ny0xMC4yMTctMTEuMDYzLTkuODM3QzIxNi40NTcsMTI3Ljg5NiwyMTYuNDU3LDEyOC40NDMsMjE2LjQ1NywxMjguOTl6JiMxMDsmIzk7JiM5OyBNMzI2LjY4OCw0MzEuMDAxYzEuNTYzLDAuMzI5LDIuNjk0LDAuNjQxLDIuODY5LTEuMjI3QzMyOC4wOTcsNDI5LjY3OSwzMjcuMTA0LDQzMC4wNDUsMzI2LjY4OCw0MzEuMDAxeiBNMjcwLjEzNiwzOTQuOTM4JiMxMDsmIzk7JiM5O2MtMC4xMzgsMS45MywzLjc1NSwxLjk2Nyw0LjUxMiwxLjYzOUMyNzQuMDA3LDM5NS4yOTYsMjcyLjA2NSwzOTMuNjMzLDI3MC4xMzYsMzk0LjkzOHogTTI2MC4zMDEsMzg3LjE1NCYjMTA7JiM5OyYjOTtjMC42ODIsMC42OSwyLjQwNywwLjMyNCwzLjY4OCwwLjQxMWMwLjEzNy0xLjUwMS0wLjQ1OC0yLjI3OC0wLjgxOS0zLjI4MUMyNjEuMDE2LDM4NC4wNDgsMjYwLjQyMSwzODUuMzYxLDI2MC4zMDEsMzg3LjE1NHomIzEwOyYjOTsmIzk7IE0xODEuNjIzLDIxOS41NWMtMS4xMTItMC45NDItMS45MTksMC43ODQtMi40NTksMGMxLjMzNS0xMC4xNjYsMy40OC0yNS44MTgtMC44MTktMzQuNDE4Yy0xLjA2My0wLjkyOC0yLjc0NSwwLjMyNi0zLjI3Ny0wLjQxMiYjMTA7JiM5OyYjOTtjMi44NjEtNi44Myw0Ljc5My0yMS4wNzUsMy42ODctMjkuNTA0Yy0wLjM4OS0yLjk3MS0xLjkzMi04LjI1NS0zLjY4Ny05LjQyNWMtNC40MS0yLjkzNi04LjQyMywxLjU3Ni0xMS40NzYsMi40NTkmIzEwOyYjOTsmIzk7Yy0xLjkyMSwwLjU2LTQuMDU3LDAuMTYtNi4xNDYsMC40MDhjLTguMjYzLDAuOTk2LTE3LjAzMSwzLjQ2LTIyLjUzNyw2LjE0NmMyLjg3LDEuOTEzLDYuOTM4LDIuNjI0LDguMTk0LDYuMTQ2JiMxMDsmIzk7JiM5O2MtNy4xNC0wLjUwNS0xMi43MS0yLjU4My0xOC44NTEtNC4wOTZjMC42NTUsOS4yNDUtMTAuNjgzLDYuMzQ4LTE3LjYxOSw2Ljk2OGMyLjM5NiwwLjA1MiwyLjc4LDEuMjEsMi44NjksMi44NjcmIzEwOyYjOTsmIzk7YzAuMjg1LDUuNDM5LTE3LjYxMywxMS44ODUtMjMuNzY4LDcuNzg5Yy04Ljc3OSw3LjA3OCwzLjg2MywxNC4zMDgsMy4yNzgsMjMuMzU4Yy0xLjcyNiwxLjI3OS0yLjUyMywzLjQ4NS00LjA5OCw0LjkxMyYjMTA7JiM5OyYjOTtjLTguNzI1LDAuMjEyLTE3LjkwMiwxLjk2Ny0xNi4zOTQsMTEuMDY2Yy0xLjE3OS0wLjY4OC0zLjAzOS0xLjE0Ny00LjUwOC0wLjQxMmMtMi4yMyw1Ljc0NSwxLjUxNCwxMS45ODEsNi41NTksMTMuMTE2JiMxMDsmIzk7JiM5O2MxLjI3MS0wLjM3LDEuNTY3LTEuNzExLDMuMjc4LTEuNjM5YzExLjM5NiwyLjE3OSwxNS40MDgsOS43MzcsMTQuNzUzLDI0LjE3NGMtMC4xMTQsMi40ODYsMC4xMzMsNS43My0xLjYzOSw3LjM3OSYjMTA7JiM5OyYjOTtjLTYuNDY3LTAuNDQzLTEyLjQ2My0xNi40MDUtMi4wNS0xNi44Yy0yLjQ5Ny0zLjY3NC00LjM4OC05LjE1NS05LjAxNi05LjAxOGMtNS4zMDUsMC4xNTgtNy42ODYsOC41NDItMTEuNDc0LDExLjQ3NSYjMTA7JiM5OyYjOTtjNS40NiwzLjAxNywxOC4yODMsMTEuMzQzLDcuNzg1LDE2LjgwMWM1LjE5NywwLjc3OSw4LjA5NywyLjg0LDEwLjI0NCw1LjczNGMzLjU3OCw0LjgzMiwzLjQ2NCwxMi4wNzIsNi4xNDgsMTUuOTg1JiMxMDsmIzk7JiM5O2M1LjQzMSw3LjkyMiw4LjI5OC03LjEwNiwxNC43NS0wLjgyM2MxLjUyNCwwLjUyNC0wLjY3MS0xLjQ4LTAuODE5LTEuNjM1Yy01LjUzNS01Ljk3Ni0xMy45NzctMTAuODc0LTE3LjIxLTE4LjAzMSYjMTA7JiM5OyYjOTtjMi40ODUtMS4xMzksNS44MTYsMC4xMDQsOC4xOTQsMC40MDhjMC45NC00LjgxNC0yLjQwNS0xMC4yNjItMS4yMjktMTMuOTM2YzAuODQ3LTIuNjM0LDIuNDEtMS40NzQsNC4wOTktMi40NTYmIzEwOyYjOTsmIzk7YzAuOTkzLTAuNTc4LDAuMjE2LTIuNzMsMi4wNS0yLjA0OGMtMC4wMTEsNS42MjYtMy40MDEsMTUuMDk0LDAuNDA3LDE5LjI1OWM1LjU2MSwwLjk5OCw3LjE2Ny04LjU2NSwxMS44ODYtOC42MDUmIzEwOyYjOTsmIzk7YzIuNjM2LTAuMDIzLDUuMTI3LDQuNjE3LDYuOTY1LDYuOTY2YzIuMjA4LDIuODE5LDUuMjA5LDYuMjgzLDQuNTA4LDkuNDIzYy0xLjQ3Niw2LjYyLTEyLjU5NCwxLjU4LTE2LjM5MS0xLjIzJiMxMDsmIzk7JiM5O2MyLjMxNCw5LjE4NiwxNi41NTMsMTAuNjEyLDE3LjIxLDIyLjU0M2MwLjA3NSwxLjMzMS0wLjU5NywzLjAzMS0wLjQwOSw0LjUwNGMwLjgwNSw2LjI5Niw2LjY3NiwxMC45NzUsMTIuNzAyLDYuOTcmIzEwOyYjOTsmIzk7YzAuODg2LDIuMjU4LDEuMDAyLDUuMjg1LDMuMjgxLDYuMTQ2YzEuOTk2LTEuNjg4LDEuMjg3LTYuMDg5LDIuNDU3LTguNjA4YzcuMTUsMS40OTcsMTAuODgzLDQuOTQsMTMuMTEyLDEwLjY1NCYjMTA7JiM5OyYjOTtjMS4xMDQsMi44MjcsMC44MTksOC4wNjcsNS4zMjcsOC4xOTZjMC42OS02Ljk4Ni00Ljc4NC0xMS4zMTUtNS43MzUtMTguMDMxYzMuNjczLDUuOTI2LDE2LjkyMiwxMi4zMzgsMTYuMzkyLDIxLjcyJiMxMDsmIzk7JiM5O2MtMC4zNTIsNi4xODgtNy43MDYsNi44NjEtMTQuNzUzLDcuNzg1YzYuNzE2LDIuMzA4LDkuNTI5LDkuODMsMTYuODAxLDEyLjI5MmMxLjk1NCwwLjY2Niw0LjQ2NCwwLjA5Niw2LjU1NiwwLjgyMyYjMTA7JiM5OyYjOTtjNS4zMjEsMS44NTEsMTMuODI5LDEyLjc1OSwxMS40NzYsMTkuNjdjLTExLjMzOCw1LjcxNC0yMC4xODQtOS43My0zMi43ODQtOS40MjNjNS4zMTMsNi43NzQsMTQuMDA0LDkuMDI4LDIxLjMwOSwxMi4yOTMmIzEwOyYjOTsmIzk7YzcuODYyLDMuNTEsMTUuNzM0LDcuMTA2LDIzLjM1OCwxMC42NTNjMTcuOTcyLDguMzU5LDMwLjQ0NywxOS4yOTYsNDIuMjA5LDMzLjE5M2MtOC4xNjEsNC40NS0zMi44OTctMi45NTItMTguMDMxLTguMiYjMTA7JiM5OyYjOTtjLTUuMTcxLTAuMTc1LTEwLjY0NC0zLjQxOC0xNS4xNjQtMS42MzRjMi4zOTYsMTUuNjM2LDIyLjk2OCwxMy4wOTUsMzguNTIyLDE1LjU2OWMtMS40MTYsMi42ODItMy40MTIsNC43ODYtNC45MTksNy4zNzcmIzEwOyYjOTsmIzk7YzEuMTk5LDAuNzA3LDIuODU2LDAuOTY1LDQuOTE5LDAuODE5Yy0wLjk5NiwxLjU5Ny0zLjU4OSwxLjYwMS0zLjY5LDQuMDk2YzEuOTkyLDIuNjUzLDUuOTM1LDMuMzU2LDguNjA2LDUuMzI3JiMxMDsmIzk7JiM5O2MxMC41MzEtNy41NTIsMTEuNzEyLDkuNTgxLDE4LjQ0LDkuODM1YzYuMzU4LDAuMjM3LDcuNTc3LTguODk5LDEzLjkzNi05LjgzNWMtMS41OTgsMy4zMjMtNC43MjUsNS4xMTEtNi4xNDYsOC42MDgmIzEwOyYjOTsmIzk7YzYuMjI2LTEuNTA1LDguMDAxLTQuODU3LDEzLjEwNy02LjE1YzE4LjI5OC00LjYyOSwzMy4yOTgsMTAuNjEyLDQ4LjM1NSwxMi4yOTdjNS40MTQsMC42MDMsMTAuNzk2LDMuNjQzLDE1LjU3Myw0LjUwOCYjMTA7JiM5OyYjOTtjNi4xNzYsMS4xMTQsOS45NzMtMC45MTksMTQuNzUxLTMuMjc3Yy03LjI3Ny02Ljc5NS0yMy45ODYtNC4xNDktMjkuOTEyLTEyLjI5N2MwLjIyOS0xLjQwOSwxLjE5My0yLjA4MywyLjA1LTIuODY1JiMxMDsmIzk7JiM5O2MtMTkuMTgsNC4yMTMtMzEuMjU2LTcuMjgxLTM5LjM0LTE4LjAzMWMtMjMuNjYyLTYuMTEyLTQ0LjQyMS0xNS4xMzMtNTQuNTA0LTM0LjgzMWMtMC40ODQtMS44NTUsMS44MTctMC45MTUsMS4yMzMtMi44NyYjMTA7JiM5OyYjOTtjLTguMzE5LTkuMjU3LTE2LjYzNC0xOC42NTUtMjMuMzU4LTI5LjUwNWMtMi4zMjQtMy43NDYtMy45MTUtOC40NTQtNi41NTgtMTEuNDczYy0xLjY3NC0xLjkxMy00LjQ4My0yLjk2Ni02LjE0Ni00LjkyJiMxMDsmIzk7JiM5O2MtMS44MjEtMi4xNDItMi4wNjktNC44MjQtNC45Mi01LjczNGMtMS4wOTYsMS42MzQtMC4zNjEsNS4wOTgtMS4yMjcsNi45NjVjLTEuOTcxLTcuOTEzLTYuMzYyLTE1LjQyOC0xNC43NTItMTUuNTczJiMxMDsmIzk7JiM5O2MtMC4xNTYtNS43NTUsNC40OTMtNi43MDMsNi45NjUtOS44MzVjLTMuMjU0LTMuOTEzLTQuMDM4LTguODQxLTUuNzM2LTE0Ljc1Yy00LjEyOC0xNC4zNTktNy41MzktMjkuMzU5LTExLjA2Ni00Mi42MiYjMTA7JiM5OyYjOTtjLTQuNjc0LDEuNzQ1LTUuOTEzLDYuOTI2LTguMTk0LDExLjA2NWMwLjIyNS01LjkyLDAuNTAyLTExLjc5MiwzLjY4OS0xNC43NTVjMS40NTcsMC4xODMsMS42MTcsMS42NjQsMi40NTcsMi40NiYjMTA7JiM5OyYjOTtjMC43Ny0yLjc5MiwzLjQxMi01LjM5NiwyLjA0OC05LjAxNGMtMS4wNTgtMS42MzQtNC4xNTEtMC44NzItNC45MTUtMC44MTlDMTgyLjQxNCwyMzQuMjcxLDE4NC4xMTIsMjI1LjI4OSwxODEuNjIzLDIxOS41NXomIzEwOyYjOTsmIzk7IE0zNDYuMzU3LDQ2Mi41NTdjMy41NDMtMS41MTQsNi43MzItMy4zNzcsOC4xOTItNi45N0MzNTAuNjk4LDQ1Ni41NTIsMzQ1LjI2OCw0NTguMDA3LDM0Ni4zNTcsNDYyLjU1N3ogTTM0Ni43NjUsNDU0LjM2JiMxMDsmIzk7JiM5O2MtMi4zNywxLjMxMy01LjAzNiwyLjM0MS02LjU1NCw0LjUwOEMzNDMuNjA4LDQ1OS4wNzEsMzQ3LjU4OCw0NTUuNjYxLDM0Ni43NjUsNDU0LjM2eiBNMzM0LjA2NCw0NjAuNTA2JiMxMDsmIzk7JiM5O2MyLjMyLTAuNjE5LDQuODAzLTMuMDE1LDQuNTA4LTQuOTE5QzMzNS44NzgsNDU1Ljg1NywzMzEuNzExLDQ1Ny43NzgsMzM0LjA2NCw0NjAuNTA2eiBNMzM1LjcwMyw0NTEuMDc5JiMxMDsmIzk7JiM5O2MtMy42ODgtMS4xNjUtNi42OTksMS43MjItNi45Nyw1LjMzMUMzMzIuMDE5LDQ1NS41OTUsMzM0LjI0Myw0NTMuNzIsMzM1LjcwMyw0NTEuMDc5eiBNMzI0LjIyNiw0NTEuOTAyJiMxMDsmIzk7JiM5O2MtMy42MDIsMC42MjgtNi4yOTYsMi4xNjItNy4zNzcsNS4zMjNDMzIxLjI1Miw0NTguOTcyLDMyMy41MDYsNDU1LjE4OCwzMjQuMjI2LDQ1MS45MDJ6IE0zMTguNDkxLDQ2Mi41NTcmIzEwOyYjOTsmIzk7YzEuMDE1LDAuMDU4LDEuOTg3LDAuMDc0LDIuMDUtMC44MjNDMzE5LjkyNiw0NjEuMDg0LDMxOC4yMDQsNDYxLjEzNCwzMTguNDkxLDQ2Mi41NTd6IE0zMjUuMDQ5LDQ0NC45MzMmIzEwOyYjOTsmIzk7Yy01LjczNC0wLjQ0LTEyLjU5MiwzLjI4MS05LjAxNiw4LjE5NkMzMTkuODUxLDQ1MS4yMDgsMzIzLjcxOCw0NDkuMzQxLDMyNS4wNDksNDQ0LjkzM3ogTTI5Ni43NzEsNDUyLjcyMiYjMTA7JiM5OyYjOTtjMy41ODEsMC41MDMsNC41MTctMy41OTMsNi45Ny0yLjg3NGMxLjQyMywwLjg5OCwwLjU1OCw0LjA4OCwyLjg2NSw0LjEwMWM1LjM2LTEuMDksNy4yOS04LjQwNCw0LjA5Ny0xMy41MjMmIzEwOyYjOTsmIzk7QzMwMy40NzksNDQxLjY5NywyOTYuODcsNDQ1LjY3MywyOTYuNzcxLDQ1Mi43MjJ6IE0yOTguNDA5LDQ0Mi4wNjdjLTIuMTc1LDEuMTAyLTQuNDkxLDIuMDU5LTUuNzM0LDQuMDk2JiMxMDsmIzk7JiM5O0MyOTUuMzU2LDQ0Ni4wNDcsMjk5LjM0OSw0NDMuMDksMjk4LjQwOSw0NDIuMDY3eiBNMjg2Ljk0LDQ0NC4xMTdjMC4yMjksMS4wOS0xLjY4OCwyLjA4NC0wLjQxNiwyLjg2NSYjMTA7JiM5OyYjOTtDMjg2Ljg2NSw0NDYuNDY3LDI4OS4wMiw0NDQuNDQxLDI4Ni45NCw0NDQuMTE3eiBNMjc5LjU2Myw0NTMuOTQ4Yy0wLjEyOSwwLjU1OC0wLjU4NiwwLjc4Mi0wLjQwNywxLjYzOWMwLjU0MSwwLDEuMDksMCwxLjYzOSwwJiMxMDsmIzk7JiM5O0MyODAuOTA2LDQ1NC41MTQsMjgwLjY0LDQ1My44MjcsMjc5LjU2Myw0NTMuOTQ4eiBNMjczLjQxNyw0NTEuOTAyYy0yLjA3MSwwLjExNi0yLjg1NCwxLjUxOC0yLjg3LDMuNjg1JiMxMDsmIzk7JiM5O0MyNzIuMzMxLDQ1NS4xOTEsMjczLjk1Nyw0NTQuNjMsMjczLjQxNyw0NTEuOTAyeiBNMjMyLjAyNCw0MzEuMDAxYy0yLjUyNS0wLjExMS0zLjI5NSwwLjI3OS0wLjQwNywwLjgyNCYjMTA7JiM5OyYjOTtjMi43NTEsMC41MDcsNy42MDQsMC43NzMsOS40MjYsMEMyMzguODgsNDMxLjgsMjMzLjI5MSw0MzEuMDYsMjMyLjAyNCw0MzEuMDAxeiBNMjQ0LjMyMSw0MjQuNDQ3JiMxMDsmIzk7JiM5O2MtMi4xNDQtMS42My02LjQ1NC0wLjQ0OS04LjYwNSwwLjQwOEMyMzYuOTU3LDQyOC4yNjUsMjQzLjA1MSw0MjYuNzUxLDI0NC4zMjEsNDI0LjQ0N3ogTTIzMS4yMSw0NTUuMTc5JiMxMDsmIzk7JiM5O2MxMC4yMiw1LjM1NiwyNC4yOTIsMTEuMjAzLDM4LjkyNiw5LjQyNEMyNTkuNTAyLDQ1OS4zOTYsMjQzLjY4OCw0NTcuMTc1LDIzMS4yMSw0NTUuMTc5eiBNMjE2LjA0Niw0NTAuNjcxJiMxMDsmIzk7JiM5O2MwLjk3OSwxLjM0NCwzLjI5MSwxLjM1Miw0LjkxNSwyLjA1MUMyMjMuOTg2LDQ0OS43OTgsMjE3LjMzNyw0NDguMTUxLDIxNi4wNDYsNDUwLjY3MXogTTE3Ny41MjUsNDE3LjQ3OCYjMTA7JiM5OyYjOTtjLTIuNzY2LDAuMjQxLTUuNzc2LDAuMjMzLTYuNTU2LDIuNDYyQzE3My42MDQsNDIwLjkxNywxNzcuNDE3LDQyMC4zMSwxNzcuNTI1LDQxNy40Nzh6IE0xNjkuNzM4LDQyOC4xMzImIzEwOyYjOTsmIzk7YzAuOTYzLDAuODczLDIuNzM0LDEuOTEzLDMuMjc5LDBDMTcyLjU5Myw0MjcuNjk5LDE3MC4wOTIsNDI3LjI4OCwxNjkuNzM4LDQyOC4xMzJ6IE0xNzQuNjU2LDM5My4zJiMxMDsmIzk7JiM5O2MwLjM3Mi0xLjcxMy0yLjg5MS0yLjM2MS0zLjI3Ny0wLjgxOEMxNzIuMjc3LDM5Mi45NDYsMTczLjA1NSwzOTMuNTM3LDE3NC42NTYsMzkzLjN6IE0xNzkuOTg1LDQwNy4yMzEmIzEwOyYjOTsmIzk7Yy0wLjAyLTAuNTYyLDAuMTkzLTAuODk4LDAuNDA5LTEuMjI3Yy0xLjIyMS0xLjI2MS0zLjY5LTEuNDg1LTUuNzM4LTAuODE5QzE3NC45ODQsNDA3LjE1NiwxNzguMjY2LDQwNy45NzksMTc5Ljk4NSw0MDcuMjMxeiYjMTA7JiM5OyYjOTsgTTE4MC4zOTUsNDMzLjQ2M2MwLjUyNCwwLjU1OCwxLjkzNCwwLjU1OCwyLjQ1OCwwYzAuMTkzLTEuMjg5LTAuNTEyLTEuNjc2LTEuMjI5LTIuMDU0JiMxMDsmIzk7JiM5O0MxODEuMjU2LDQzMi4xMzcsMTgwLjYzNCw0MzIuNjA2LDE4MC4zOTUsNDMzLjQ2M3ogTTE5My4wOTksMzg2LjMzNWMtMS4zMzUtMy44NTktNS42ODgtMi44NDEtOC42MDctNC4wOTcmIzEwOyYjOTsmIzk7Yy00LjY5MS0yLjAyMS04LjY5Ni02Ljg0NS0xNC43NTMtNi45NjVjLTAuMjcyLDAtMC41NDcsMC0wLjgxNywwQzE3NC4xOSwzODEuNDgxLDE4MS4xNjIsMzg4LjE1MiwxOTMuMDk5LDM4Ni4zMzV6JiMxMDsmIzk7JiM5OyBNMTcxLjc4OCwzNzEuMTc3Yy0zLjgyNS0yLjU5OS04LjAxNS00LjgzMi0xMy41MjMtNS43MzhDMTYwLjAxNiwzNjkuODM0LDE2Ni44MzIsMzcxLjM0OCwxNzEuNzg4LDM3MS4xNzd6IE0xODQuNDkxLDM5MC40MzEmIzEwOyYjOTsmIzk7YzIuODczLDMuMDAzLDYuNDc5LDUuMjczLDEyLjcwNCw0LjkxNkMxOTQuODAyLDM5Mi4xMzYsMTg5LjA4NCwzOTAuMDc3LDE4NC40OTEsMzkwLjQzMXogTTIwMC4wNjMsNDA4Ljg3NCYjMTA7JiM5OyYjOTtjLTQuMjE5LTIuOTI0LTEwLjg1NS03LjY2OC0xNi4zOTEtNi41NTlDMTg2Ljg3NCw0MDYuNDkxLDE5My4zMTEsNDA5LjYxOCwyMDAuMDYzLDQwOC44NzR6IE0xODQuNDkxLDQyNC40NDcmIzEwOyYjOTsmIzk7Yy0wLjA5OSwwLjU4My0wLjY3NCwwLjY4Ny0wLjgxOSwxLjIyM0MxODQuNjgyLDQyNi45ODgsMTg2LjIwMiw0MjQuNzIyLDE4NC40OTEsNDI0LjQ0N3ogTTE5My45MTYsNDM2Ljc0JiMxMDsmIzk7JiM5O2MwLjM0OCwxLjU2MywxLjg1MywxLjk3MSwzLjI3OSwyLjQ1OGMwLjU1NS0wLjk0OCwxLjY0Ni0xLjM2LDEuMjI5LTMuMjc3QzE5Ny40MjgsNDM1LjMyMiwxOTMuODQ2LDQzNC45NzcsMTkzLjkxNiw0MzYuNzR6JiMxMDsmIzk7JiM5OyBNMjAxLjcwMyw0MTguNzA5Yy0xLjI2OS0wLjc3Ny01Ljg5Ny0xLjY0Ni02Ljk2OCwwQzE5Ni43MjMsNDE5LjUxNiwyMDAuNjI4LDQyMS42MDQsMjAxLjcwMyw0MTguNzA5eiBNMjAyLjkzMiw0MDQuNzczJiMxMDsmIzk7JiM5O2MwLjQxLTMuMDQ4LTMuMDM4LTMuMDYxLTQuNTA4LTIuMDVDMTk4LjU2Miw0MDQuNzczLDIwMS4yNzQsNDA0LjI1LDIwMi45MzIsNDA0Ljc3M3ogTTIwNy40MzksMzgyLjY0NiYjMTA7JiM5OyYjOTtjLTEuODUxLTIuNzk1LTYuOTkyLTIuMjk2LTEwLjY1NC0zLjI3N2MtMi42ODItMy4zNjgtOS4wOTUtNC41OTEtMTQuNzUyLTMuNjg4QzE4OC41MTIsMzc5Ljk5NywxOTUuODgxLDM4My40MTUsMjA3LjQzOSwzODIuNjQ2eiYjMTA7JiM5OyYjOTsgTTIwNi42Miw0MjEuOTg1YzEuNzYsMS41MTksNC41MTksMi4wMzgsNi45NjYsMi44N2MwLjEzMS0wLjk2NSwwLjY0Ni0xLjUzOSwwLjQwOS0yLjg3JiMxMDsmIzk7JiM5O0MyMTIuODAyLDQyMC42MDksMjA3LjYyNSw0MTkuODk4LDIwNi42Miw0MjEuOTg1eiBNMTcxLjc4OCwzNTUuNTk5YzAuNDEtMS45MTItMC43MTUtMi4yODctMi40NTktMi4wNDYmIzEwOyYjOTsmIzk7QzE2OC43MTEsMzU1LjY3NCwxNzAuNzU1LDM1NS4xMjksMTcxLjc4OCwzNTUuNTk5eiBNMTgxLjYyMywzNjAuNTE5Yy0xLjE5Ny0wLjMwNC0wLjc5NC0yLjIwOC0yLjQ1OS0yLjA1JiMxMDsmIzk7JiM5O0MxNzcuNjU0LDM1OS44NTQsMTgwLjM3NCwzNjEuOTYyLDE4MS42MjMsMzYwLjUxOXogTTE1My4zNDgsMzYzLjM4OGMtMS4zNi0zLjAwNy00LjQyNS00LjMxNi02LjU1Ni02LjU1OCYjMTA7JiM5OyYjOTtjMy45OTYtNS43ODktNC45Mi04LjE1OS02LjU1Ny0xMi4yOTNjLTAuMDE5LTEuMjQ3LDAuODY1LTEuNTkzLDEuMjI5LTIuNDYyYy0zLjQ0My0yLjAxNy03LjQxOS0zLjUwNS05LjQyNi02Ljk2MSYjMTA7JiM5OyYjOTtjMS41ODUtMS4xNDcsNS44MSwwLjM0MSw3LjM3NS0wLjgyM2MtMi40ODItMS4wNjktNS4xNjItMS45MzgtNi4xNDYtNC41MDhjMS40MzctMy4zNDQsNy4yNzktMi4yNzksOC42MDUtNS43MzUmIzEwOyYjOTsmIzk7Yy03LjA1OS0xLjU1OS0xNC4wNzItNS4zMS0yMS43Mi00LjkxOWMwLjA4NywyLjkxOSwyLjY4NSwzLjMyNiwzLjY4OCw1LjMyN2MtMi4yNjctMS4wMDctNC4xMDEtMi40NTgtNy4zNzUtMi40NTgmIzEwOyYjOTsmIzk7Yy0wLjI0NSwyLjAyMSwxLjA2NCwyLjQ4NywwLjgyMSw0LjUwOGMtMi4yMzUsMC4xODMtMy4zNjgtMC43MzEtNS43MzktMC40MDdjMS42OSwzLjc3MSw2LjAyNCw0LjkwMiw3LjM3OCw5LjAxNiYjMTA7JiM5OyYjOTtjLTEuNjc2LDAuNDI0LTMuOTUxLTAuNjY2LTQuNTA4LDBjNC4zMjYsMy41OTMsMTAuNjQ0LDcuMzgxLDEzLjExMSwxMS40NjljLTQuMDI1LTAuNzQ4LTYuMzI5LTMuMjI3LTEwLjI0Mi00LjA5NiYjMTA7JiM5OyYjOTtjMy4yNzYsNi40ODcsMTEuMjUzLDcuODM5LDE3LjIxLDExLjA2NUMxNDAuNTk0LDM1Ni44NTQsMTQ2LjA1OCwzNjIuMTc4LDE1My4zNDgsMzYzLjM4OHogTTE0NC4zMzIsMzY4LjMwNCYjMTA7JiM5OyYjOTtjMS43MTMsMC45MzYsNS4xMjMsMy45MDgsNy4zNzcsMS42NDNDMTQ5LjgwOSwzNjkuMTA1LDE0Ni44MiwzNjcuMTkzLDE0NC4zMzIsMzY4LjMwNHogTTE0MS4wNTUsMzY2LjI1MyYjMTA7JiM5OyYjOTtjLTEuMTUzLTEuODY3LTcuMDM2LTIuODYxLTguNjA0LTEuNjM5QzEzNS4xMjUsMzY1LjM4NCwxMzcuNjQ1LDM2Ny40NTksMTQxLjA1NSwzNjYuMjUzeiBNMTMzLjY3OCwzNjcuNDg0JiMxMDsmIzk7JiM5O2MtMC4xMjksMC41NTctMC41ODIsMC43ODEtMC40MDksMS42NDNjMC43MjEtMC4yMzcsMi40MDcsMC40OSwyLjQ1OS0wLjQxMkMxMzUuMDkyLDM2OC4yNTgsMTM0Ljg3MywzNjcuMzg0LDEzMy42NzgsMzY3LjQ4NHomIzEwOyYjOTsmIzk7IE0xMjguMzUxLDMxMi45ODJjLTEuMTE4LTMuODUxLTIuNjExLTguMDcxLTUuNzM2LTExLjA2MmMtMS42ODMtMS42MTMtMy4zMTMtMS41OC00LjUwOC0zLjY5MyYjMTA7JiM5OyYjOTtjLTMuMTY3LTUuNTcyLTEuNjQ5LTEzLjQzOS01LjczNy0xOS4yNTRjLTAuOTY3LTAuMzE1LTIuODMyLTAuODExLTMuNjg4LDBjMC4wNzcsMi42ODcsNi4zMTMsOS4wNTgsMi4wNTEsMTIuMjkzJiMxMDsmIzk7JiM5O2MtOS40MjQsMC4zNzQtMTMuMDUyLTcuMTI4LTIyLjEyOC01LjczOWMtMi4wNDQsNS4yOTQsNS4xODIsOC4wMTQsMy4yNzYsMTEuODg2QzEwNC45MTcsMzAxLjU5NywxMTUuMjcsMzEwLjY2MiwxMjguMzUxLDMxMi45ODJ6JiMxMDsmIzk7JiM5OyBNOTguODQ2LDMyNS4yNzVjMi40MDgsMS44MzQsNS44ODksNC43NjYsOS4wMTYsNC41MDhDMTA1LjM4NSwzMjguMDI4LDEwMy4xMDYsMzIzLjg5NSw5OC44NDYsMzI1LjI3NXogTTk0LjMzOCwzMjEuNTkxJiMxMDsmIzk7JiM5O2MtMS4wNjMtMy4zMDctMi45MDYtNS44MzUtNi45NjYtNi4xNDZDODguMTk4LDMxOC45ODcsOTIuMDQ3LDMxOS41MTIsOTQuMzM4LDMyMS41OTF6IE04Ny4zNzIsMzMyLjI0NSYjMTA7JiM5OyYjOTtjMi4xOTQsMS41MDEsNC4zNzMsNS4xODEsNi41NTcsNS4zMjdDOTIuMzMyLDMzNS40OCw5MC4zODYsMzMxLjU1OSw4Ny4zNzIsMzMyLjI0NXogTTkwLjI0MiwzMDMuOTY3JiMxMDsmIzk7JiM5O2MwLjIxMi0wLjYwNywwLjYwNC0xLjAzMSwwLjgxOS0xLjYzOWMtMS4wNTEtMS40NDctMy42NDItMC42NTctNC4wOTcsMC44MjNDODcuNzcsMzAzLjcwOSw4OS4zMDQsMzAzLjU0Myw5MC4yNDIsMzAzLjk2N3omIzEwOyYjOTsmIzk7IE0xNTMuNzU5LDMyMC4zNTljLTAuMDU4LTMuNTI2LTMuOTc1LTUuNTcyLTYuOTY3LTMuNjg1QzE0Ny43NCwzMTkuMjc4LDE1MC41OTcsMzE5Ljk2OSwxNTMuNzU5LDMyMC4zNTl6IE0xMTUuMjM2LDI2Ni42ODImIzEwOyYjOTsmIzk7YzAuMDY5LTAuNjc4LTIuNTIzLTAuNjc4LTIuNDU3LDBDMTEzLjM0MSwyNjYuODA2LDExNS4yNTEsMjY4LjUzMiwxMTUuMjM2LDI2Ni42ODJ6IE05OS4yNTgsMjY1LjAzOWMtMC41NDcsMC0xLjA5NCwwLTEuNjQxLDAmIzEwOyYjOTsmIzk7Yy0wLjU2MywwLjUyNy0wLjQwNSwxLjc4NC0wLjQxLDIuODY1YzAuNzQ5LDAuMTEyLDIuMjk4LDEuNDgsMi44NywwLjQxNUM5OS4wNjMsMjY3Ljk2MiwxMDAuMTk1LDI2NS40NjcsOTkuMjU4LDI2NS4wMzl6JiMxMDsmIzk7JiM5OyBNNjguNTIxLDI2NC42MjdjMS4zNTgsMy4wOSw2Ljg1NSwyLjg2MSw3Ljc4Ny0wLjQwN0M3My45NzYsMjYzLjMxNyw3MC41NDEsMjYzLjk0NSw2OC41MjEsMjY0LjYyN3ogTTY5Ljc1MywyNTMuMTUzJiMxMDsmIzk7JiM5O2MtMS41ODUtMC4wNzktMy4wMjEtMC4wMTMtNC4xMDEsMC40MTJDNjUuOTcxLDI1NS4zNTMsNjkuNzQyLDI1NS4wMzUsNjkuNzUzLDI1My4xNTN6IE03My40MzksMTg3LjE4JiMxMDsmIzk7JiM5O2MtMi4xMDYsMC45NzMtNi40OTgtMC45NzUtOC42MDQsMGMxLjg2NSw3LjM4MywxNS42ODgsMy40MDgsMTQuNzUzLTIuNDZjLTAuNzk0LTQuOTc4LTEzLjkzOS0zLjc0NS0xOC40NDEtMy4yNzcmIzEwOyYjOTsmIzk7QzY0LjYzNiwxODMuOTYzLDcwLjE4MiwxODQuNDI3LDczLjQzOSwxODcuMTh6IE01Ny4wNDksMTk0Ljk2NWMwLjc3MSwxLjE0MiwyLjg5LDAuOTM0LDQuMDk4LDEuNjM5JiMxMDsmIzk7JiM5O2MwLjIzNy0wLjg1NCwxLjAxNy0xLjE2OCwwLjgxOS0yLjQ1OEM2MC44OTEsMTkzLjU3OCw1Ny4wMjMsMTkzLjEzMSw1Ny4wNDksMTk0Ljk2NXogTTc3Ljk0OSwxOTMuMzI3JiMxMDsmIzk7JiM5O2MtMC4yMjEsMC44OTQtMC45OTQsMi42NTEsMC40MDcsMi44NjlDNzkuMzMyLDE5NS41MDgsNzkuMTI4LDE5My45MjEsNzcuOTQ5LDE5My4zMjd6IE04OS40MjMsMTY4LjczOSYjMTA7JiM5OyYjOTtjLTAuMTA4LTEuMTk4LDAuOTI1LTEuMjU2LDAuODE5LTIuNDU4Yy0xLjY2Ni0wLjE2My0yLjg1NywwLjE0OS0yLjg3LDEuNjM4Qzg4LjE1MiwxNjguMDk3LDg4LjQwMSwxNjguODAyLDg5LjQyMywxNjguNzM5eiYjMTA7JiM5OyYjOTsgTTg5LjAxMyw3Ny43NjdjLTEuNjMyLDEwLDcuMzc4LDIyLjA5NywxOC4wMjksMTguNDM5YzAuNDk3LTMuNzc0LTEuMjI1LTUuMzI5LTEuMjI5LTguNjA0YzIuNzE4LTAuNjU5LDQuMzE4LDEuOTUxLDUuNzM2LDEuMjI5JiMxMDsmIzk7JiM5O0MxMDcuNTYzLDgxLjYxOCw5Ni45Niw4MS4wMjEsODkuMDEzLDc3Ljc2N3ogTTg0LjUwMyw2OC4zNDJjMy42MDIsMC43MTMsOS4yNTUsMC4zNTIsMTAuNjU2LTIuNDU5JiMxMDsmIzk7JiM5O0M5Mi40MzgsNjQuMDY1LDg0LjI3NCw2My41NzgsODQuNTAzLDY4LjM0MnogTTc0LjY2OCwzOS42NTZjMC43ODgtNy45NTktOC45MzgtMTIuMzU3LTE0Ljc1LTYuOTY1JiMxMDsmIzk7JiM5O2MtMy42MzMsMy4zNjgtNS4yMTEsMTEuNTAyLDAuNDA5LDE0LjM0M2MtMC42MzgtMi4wOTYtMi41MDEtMi45NjMtMi4wNDgtNi4xNDZDNjIuNTUsMzguNDQ2LDcwLjM4MSw0Mi4wNzksNzQuNjY4LDM5LjY1NnomIzEwOyYjOTsmIzk7IE03MS44MDMsNjUuODgyYzEuMDQyLTAuNTk1LDIuNjA3LTAuNjY2LDIuNDU4LTIuNDU4QzczLjAwMSw2My41NTEsNzAuODU0LDY0LjkwOSw3MS44MDMsNjUuODgyeiBNNjMuMTk1LDk2LjIwNiYjMTA7JiM5OyYjOTtjNS4xMSwwLjEyMSw4Ljk2My0yLjc2MSwxMy45MzMtMi44NjdjNC4zMDItMC4wOTEsOC40MDIsMS4xODksMTMuNTIzLDAuODE5Qzg2Ljk5NCw4My40MjUsNjkuMjI1LDkyLjc5OCw2My4xOTUsOTYuMjA2eiYjMTA7JiM5OyYjOTsgTTU1LjQxLDExNS4wNTdjOS42NjktMS4yMjksMjMuMTQtNy41OTEsMzYuMDYxLTYuMTQ2YzQuODc0LDAuNTQ0LDkuMTQzLDMuMjg3LDExLjg4Myw1LjMyN2MtMS4zOTctMS40OTEtMy4wNTItNy42MSwwLTguNjA0JiMxMDsmIzk7JiM5O2M2LjcyNSwxLjI4MSw2Ljk0OSwxMy45ODcsMTUuMTYyLDEyLjI5M2M0LjE4NC0wLjg2Myw1LjQ1OC04Ljk3OSwzLjI3OS0xMy45MzNjMy4xMjcsMi4yLDQuNzM4LDUuOTE2LDkuMDE2LDYuOTY3JiMxMDsmIzk7JiM5O2MtMC45NzYtMy45NDItMy44MTMtNi4wMjMtNS43MzYtOS4wMTZjMS4yMDgtMS41MjIsMi43OS0yLjY3NCwyLjQ1Ny01LjczOWMtMTEuNzI3LTEuMTI3LTIyLjEzNiw1LjIwMy0zMy4xOTMsNy4zNzcmIzEwOyYjOTsmIzk7Yy04LjU4MSwxLjY5LTE0Ljk2NywzLjM2NC0yMi41MzUsNS4zMjdDNjYuMTE0LDExMC4zODUsNTkuNzgzLDExMS40Miw1NS40MSwxMTUuMDU3eiBNMjAuOTg4LDE5OS44ODQmIzEwOyYjOTsmIzk7Yy0wLjU2MywwLjUyMi0wLjcxNCwyLjQ0OCwwLjQwOSwyLjQ1OEMyMS43MzQsMjAyLjA0NSwyMi40OTcsMTk5LjUwNiwyMC45ODgsMTk5Ljg4NHogTTM1LjMyOCwxNTEuMTImIzEwOyYjOTsmIzk7Yy0xNy45NjksMi44NTEsMS4xODQsMjEuOTYxLDExLjg4NiwxNy4yMTJjMS4zNTUtMi4wODEsMC45MzQtMy45ODgsMC44MTktNi45N2M2LjIzNSwwLjYxMSwxMC45MjYtMi40MjYsMTYuMzkzLTEuMjI3JiMxMDsmIzk7JiM5O2MwLjg4MiwxLjkwNS0wLjc4NiwzLjUxOC0xLjIzLDUuMzI1YzE4LjU5My0xLjE3OSwyNy43OTktMTUuNzg4LDQ3Ljk0My0xOC4wMjljMi41MDMtMC4yNzksNS4zNTYsMC4xNjQsOC4xOTgsMCYjMTA7JiM5OyYjOTtjOC40ODMtMC40OTUsMTcuODgtMi4wNjcsMjYuNjM2LTMuNjg5YzguNTkxLTEuNTg4LDE2LjQ0Ni00Ljc0NywyMy43NjYtNi41NTRjOS4xODctMi4yNzEsMjMuMTYzLTguMjcxLDIxLjMxMS0yMC40OTEmIzEwOyYjOTsmIzk7Yy0wLjIxMi0xLjM5MS0xLjE3Ny0yLjY0MS0yLjA1LTQuMDk4Yy00OC44MzQtNC43MjItODUuMzQ2LDE0LjQyMi0xMjMuNzU0LDIyLjEyOWMtNC42MTQsMC45MjUtMTAuMjI0LDAuMzEtMTMuOTM0LDQuMDk2JiMxMDsmIzk7JiM5O2MxLjM0MiwzLjMwMiw2LjA1OCwzLjIzMSw4LjE5NCw1LjczN2MtMS4wNjgsMS4yNTItMy43MDksMC45MzItNC4wOTYsMi44N2MwLjkwNCwzLjQ2Niw2LjA0MiwyLjY5NCw2LjU1Niw2LjU1OCYjMTA7JiM5OyYjOTtjLTguMTU3LDUuNzUtMjUuMjYxLTEuNTg0LTIxLjMwOS0xMy4xMTRjLTEyLjMyNSwyLjcwMS0zMC4yNyw1LjM4NS0zMC4zMjMsMTkuMjZjLTAuMDI1LDYuMTE1LDMuNjIsMTEuNzcxLDcuNzg0LDE1LjE2MiYjMTA7JiM5OyYjOTtDMTUuMjk3LDE2Mi4zODcsMjAuMDkyLDE0My4yOTcsMzUuMzI4LDE1MS4xMnogTTUwLjQ5MiwyMjcuNzQ5YzAuMzczLTIuNzc1LTQuMTg4LTQuNzE4LTUuNzM2LTIuODY3JiMxMDsmIzk7JiM5O0M0Ni4yNjYsMjI2LjIzOSw0OC42MywyMjYuNzQsNTAuNDkyLDIyNy43NDl6IE0zNi4xNDksMjMzLjA3NmMyLjg5OCwxMC4wNzYsMy44NDEsMjIuMTEzLDExLjQ3NCwyNy40NTYmIzEwOyYjOTsmIzk7QzQ2LjQ3NCwyNDguNzA0LDQyLjI3NywyMzkuOTI1LDM2LjE0OSwyMzMuMDc2eiBNNTMuMzYsMjIyLjQyMmMxLjI3Ni01Ljc4NS03LjIxMS04LjA1MS03Ljc4NS00LjA5OSYjMTA7JiM5OyYjOTtDNDUuMDc0LDIyMS43NjUsNTAuNTAxLDIyMS4zNjUsNTMuMzYsMjIyLjQyMnogTTU1LDIxMS4zNTZjLTEuODUtMi4wMjMtNi40OTMtMy4yNzctOS44MzQtMi40NTgmIzEwOyYjOTsmIzk7QzQ2LjM0NSwyMTEuNzk5LDUzLjU5OSwyMTYuMDkyLDU1LDIxMS4zNTZ6IE01MC4wODMsMTkzLjMyN2MxLjg1MS0xLjE1NCwzLjgxNS0yLjE5OCw0LjA5Ni00LjkyJiMxMDsmIzk7JiM5O2MtMi4zNzgtMS43OC04LjA3MS0yLjAzMS04LjYwNCwwLjgyNEM0NS4xNzIsMTkxLjM4OSw0OC4wNjQsMTkyLjI2NCw1MC4wODMsMTkzLjMyN3ogTTU1LjQxLDIwMC4yOTImIzEwOyYjOTsmIzk7YzAuMTc5LTEuNDA4LTAuMTYyLTIuMjk1LTAuNDEtMy4yNzljLTIuMTAyLTAuMDUyLTMuMDgzLDEuMDE1LTMuMjc4LDIuODcxQzUyLjc0MiwyMDAuMjI4LDUzLjkxNywyMDAuNDE5LDU1LjQxLDIwMC4yOTJ6JiMxMDsmIzk7JiM5OyBNMjYuNzI1LDE5OC4yNDRjLTAuMzE2LTEuMDUtMC40MS0yLjMyMy0xLjIyOS0yLjg2OEMyNC40NzcsMTk2LjQ3OSwyNC40MzgsMTk4LjQ2LDI2LjcyNSwxOTguMjQ0eiBNMzAuODIzLDE3MC4zOCYjMTA7JiM5OyYjOTtjLTEuODM5LTAuNzE3LTQuNTYxLDAuMDQ4LTUuMzI3LDEuNjM4YzAuODYsMC43NzYsMi4wOTgsMS4xODEsMy4yNzgsMS42MzdDMjkuMTg4LDE3Mi4yOTksMzEuMDQxLDE3Mi4zNzQsMzAuODIzLDE3MC4zOHomIzEwOyYjOTsmIzk7IE0zNS4zMjgsMjIzLjI0MWMtMS4wNi0yLjM1NC0xLjE5My01LjYzNS0zLjI3Ni02Ljk2NUMyNi40NDEsMjE3LjA3NCwzMiwyMjUuMTM1LDM1LjMyOCwyMjMuMjQxeiBNNDMuMTE1LDI2Ny40OTYmIzEwOyYjOTsmIzk7YzQuMDAxLDkuNjczLDguMjI0LDIwLjEyOCwxNi44MDMsMjQuNTg2Yy02LjQxNS03LjEzNy03LjkyOS0xOC45NDYtMTIuMjk1LTI3LjQ1NWMtMS41MS0yLjkzNi0zLjkxOS01LjIxOS01LjMyNy04LjE5MyYjMTA7JiM5OyYjOTtjLTMuMzEzLTcuMDAzLTQuODQtMTUuMTc0LTExLjQ3My0xOC40NDFDMzMuNDM3LDI0OC4yOTgsMzkuMDM2LDI1Ny42MjQsNDMuMTE1LDI2Ny40OTZ6IE0xNTUuODA4LDQyMS4xNjcmIzEwOyYjOTsmIzk7Yy0yLjQ4LTguNDQ2LTkuMTM3LTEyLjcyMi0xOC40NDEtMTQuMzQzYy0yLjMtNS40ODUtOC45MzgtNi42MjktMTAuMjQ0LTEzLjExMmMtMC4yMTItMS4zMzEsMi41MzgtMS44MDEsMS42NDEtMi40NTgmIzEwOyYjOTsmIzk7Yy0xMi40NzIsMi4zNjItMTIuOTEyLTEwLjg1Ny0xOC44NTEtMTYuMzkzYy0xNC45ODcsMC4yNzEtMTIuMTk5LTE4LjI3Mi0yMC40ODktMjcuODYyYy0yLjM2OC0yLjc0NC00LjcxNi0zLjM3Ny03LjM3Ny02LjE0NiYjMTA7JiM5OyYjOTtjLTQuMDk1LTEyLjY5MS0xNC43ODItMTkuMTI5LTIwLjg5OS0zMC4zMjNjLTUuNDMzLTkuOTQ3LTYuNTc2LTIxLjE2Ny0xNS41NzEtMjguMjc4YzcuMTE3LDI0LjA5NSwyMi4zNjQsNDQuNDYzLDM2LjA2MSw2NC43NDgmIzEwOyYjOTsmIzk7YzEwLjk2NCwxNi4yMywxOC40MiwzMS42ODgsMzAuNzMzLDQ0LjY2M2M0LjE4NCw0LjQwMyw4LjkwOCw3LjM1MiwxMy45MzQsMTEuNDczQzEzNC44NTQsNDEwLjE0NiwxNDAuNzQxLDQyMy4xNSwxNTUuODA4LDQyMS4xNjd6JiMxMDsmIzk7JiM5OyBNMTU0LjE2NywzOTMuM2MtMC40NDEtMS43NTUtMy42MDItMi45MzktNS4zMjctMi4wNDZDMTUwLjQyOSwzOTIuMTI4LDE1Mi4xNzUsMzkyLjgzNSwxNTQuMTY3LDM5My4zeiBNMTY5LjMyOSwzODIuNjQ2JiMxMDsmIzk7JiM5O2MtMi43NzYtMy4yMzUtOC41ODgtNC40NjctMTMuOTMyLTYuNTU1Yy02LjYyOS0yLjU5NS0xNi4wODctNS4wNTItMjAuODk4LTIuMDVjMC40ODQsNC4wMjEsMy42ODcsNS4zMjcsNS43MzYsNy43ODUmIzEwOyYjOTsmIzk7YzUuNjkzLDAuODc3LDguOTUxLDMuNjU1LDE0LjM0MSw0LjA5NkMxNjAuOTI5LDM4Ni40NDcsMTY2Ljg2MiwzODYuMTY0LDE2OS4zMjksMzgyLjY0NnogTTM2NC43OTYsNDc2LjA4JiMxMDsmIzk7JiM5O2MtMTIuNC01LjY1NS0zMC41ODYsMC43MDctNDMuODQ4LTIuNDYyYy0yLjUwMy0wLjU5OS00LjcxNi0yLjMyLTYuOTY1LTIuNDU4Yy0yLjIzNy0wLjEzNy00Ljg0MSwxLjA0NC02Ljk2NiwxLjIzMSYjMTA7JiM5OyYjOTtjLTExLjM1NywxLjAxLTIxLjcyNS0wLjExMi0zMi4zNy0xLjY0M2MtNy40NjktMS4wNzMtMTUuNDI0LTEuNDkzLTIyLjEzMi0zLjI3N2MtNi40MjUtMS43MDUtMTMuMDctNS42MzktMTkuNjctOC4xOTYmIzEwOyYjOTsmIzk7Yy02LjY5Ny0yLjU5MS0xMy42NjktNS4xNzMtMjAuMDc5LTcuNzg1Yy0xMi42NDYtNS4xNTItMjYuMDg2LTE0LjA2OC0zOS4zNC0xNy42MTljOC45NDEsOS40OTgsMjQuMzM0LDEyLjU1LDM0LjgzNCwyMC40ODkmIzEwOyYjOTsmIzk7Yy0xNC44MzgtNC4xNS0yNi4wMzQtMTEuOTM5LTM5LjM0LTE3LjYyYzEwLjM2Nyw5LjI4MiwyNC44MzMsMTQuOTA0LDM5LjM0LDIwLjg5NmMxNC40NDcsNS45NzIsMzAuMTQ2LDExLjAyNCw0Ny4xMjIsMTMuNTIzJiMxMDsmIzk7JiM5O0MyODkuMTAzLDQ3Ni4xMjYsMzI4LjY1NCw0ODMuNTAzLDM2NC43OTYsNDc2LjA4eiBNMzc1LjQ1LDQ3NC44NDljLTIuMTA0LDAuMDg0LTQuNzI1LTAuMzU0LTQuOTE1LDEuNjM5JiMxMDsmIzk7JiM5O0MzNzIuMzE4LDQ3OC4wMTgsMzc1LjMxNyw0NzcuODU5LDM3NS40NSw0NzQuODQ5eiBNMzk3LjU3OCw0MjYuNDkzYzAuNTgyLDMuMDI4LDQuOTc4LDIuMTI1LDQuNTEyLTEuMjMmIzEwOyYjOTsmIzk7QzM5OS44NTYsNDI0Ljk0NiwzOTguODg4LDQyNS44OTUsMzk3LjU3OCw0MjYuNDkzeiBNNDMxLjU5LDQ0Ny44MDJjLTExLjAxNi0wLjI2Ni0yNC42MDUtNC4wNzEtMzYuMDYzLTMuNjg1JiMxMDsmIzk7JiM5O2MtNC4zOTYsMC4xNDYtOS43MzksMS4xOTgtMTEuMDYyLDUuNzNjMy4zODEsMS4zNzIsNy4wMDMsMC41NDksMTEuMDYyLDAuNDE2QzQwOC44MTgsNDQ5LjgxNCw0MjUuMDU4LDQ1NS43ODYsNDMxLjU5LDQ0Ny44MDJ6JiMxMDsmIzk7JiM5OyBNNDQyLjY1Niw0NDYuOTgyYy0xLjkxNy0wLjAwNC0yLjQ4MiwxLjM0OC0yLjg2OSwyLjg2NWMwLjUyNywwLjU2NSwxLjc3OSwwLjQxMiwyLjg2OSwwLjQxNiYjMTA7JiM5OyYjOTtDNDQyLjQ2MSw0NDguNDUsNDQzLjIxOCw0NDguMjIyLDQ0Mi42NTYsNDQ2Ljk4MnogTTQ2Ni44MzQsNDQ1LjM0NWMtMi0wLjMwNC0yLjc0NSwyLjE4My0yLjA1LDMuMjgmIzEwOyYjOTsmIzk7YzEuMjg5LDAuMTk1LDEuNjAxLTAuNTg2LDIuNDYxLTAuODIzQzQ2Ny41NDEsNDQ2LjU1LDQ2Ni41MzgsNDQ2LjU5Niw0NjYuODM0LDQ0NS4zNDV6IE01MDAuODQzLDQ0Ny44MDImIzEwOyYjOTsmIzk7Yy04LjM4OS0wLjg5NC0xOC4xODYtMC4zNDEtMjUuODEzLDAuODIzQzQ3OS41MjEsNDUyLjg1NCw0OTUuNjUyLDQ1MC4xNTUsNTAwLjg0Myw0NDcuODAyeiBNMTA2LjYzMywxOTguNjUxJiMxMDsmIzk7JiM5O2M0LjA0MiwyLjI0Niw3Ljc3Miw2Ljk3OCwxMy4xMTQsNi41NThjLTEuNDQzLTEuOTcxLTMuNDg5LTMuMzQxLTQuOTItNS4zMjVjMS41MjItMC4xMiwyLjgxNS0wLjQ2MywzLjI3OS0xLjY0JiMxMDsmIzk7JiM5O2MtNC45ODQtMy40ODctMTEuMzc2LTcuNzQ2LTEzLjkzMi0xMi4yOTdDMTA1Ljg2MSwxODkuMjE2LDEwOC40NDMsMTk0LjQyNCwxMDYuNjMzLDE5OC42NTF6IE0xNTkuMDg2LDIwMS45MzMmIzEwOyYjOTsmIzk7Yy0wLjg3Ny0wLjg5OC0wLjQ4Mi0zLjA3My0xLjY0MS0zLjY4OEMxNTcuMTg0LDIwMC4wMjgsMTU4LjMzOCwyMDIuNTIxLDE1OS4wODYsMjAxLjkzM3ogTTEyMS4zODUsMjM3LjU4NiYjMTA7JiM5OyYjOTtjMC42MjgsNi43NDcsNC45NCw5LjgwNiw1LjMyNywxNi44Yy00Ljc5LTUuNDU0LTcuNDY0LTEzLjAyNy0xMC42NTQtMjAuMDgzYy0wLjMxMyw4LjUzNSwyLjI2NywxMy44MjMsNC41MDgsMTkuNjc0JiMxMDsmIzk7JiM5O2MxLjcyNSw0LjQ5NiwzLjM0Miw5Ljc3Myw3Ljc4NSwxMS4wNjNjMi4wNzUtMC4zODcsMS45NTktMi45NjYsNC4xMDEtMy4yODFjMi4yNzgsMC4zMjgsMy40NjQsMy45MDQsNC45MTUsMy42OTImIzEwOyYjOTsmIzk7Yy0xLjA5NC0xLjIzLTEuNDM1LTMuMjEtMS42MzktNS4zMjdjMC4zOTYtMS41MTgsMi41NjYtMS4yNiwzLjI3Ny0yLjQ2MkMxMzQuODg0LDI0OS4yMTksMTI4Ljk3NywyNDIuNTU3LDEyMS4zODUsMjM3LjU4NnoiIGNsaXAtcnVsZT0iZXZlbm9kZCIgZmlsbC1ydWxlPSJldmVub2RkIiBkaXNwbGF5PSJpbmxpbmUiPiYjeGE7JiN4YTs8L3BhdGg+JiN4YTsmI3hhOzwvZz4mI3hhOyYjeGE7PC9zdmc+;" parent="1" vertex="1">
          <mxGeometry x="400" y="84.99999999999999" width="60" height="60" as="geometry" />
        </mxCell>
        <mxCell id="edd1Frih5Cjn2J8oHZLm-1" value="Python Virtual Environment" style="outlineConnect=0;gradientColor=none;html=1;whiteSpace=wrap;fontSize=12;fontStyle=0;strokeColor=#858B94;fillColor=none;verticalAlign=top;align=center;fontColor=#858B94;dashed=1;spacingTop=3;" vertex="1" parent="1">
          <mxGeometry x="20" y="20" width="610" height="420" as="geometry" />
        </mxCell>
        <mxCell id="edd1Frih5Cjn2J8oHZLm-2" value="" style="shape=image;verticalLabelPosition=bottom;labelBackgroundColor=default;verticalAlign=top;aspect=fixed;imageAspect=0;image=data:image/svg+xml,PHN2ZyB4bWxuczp4bGluaz0iaHR0cDovL3d3dy53My5vcmcvMTk5OS94bGluayIgeG1sbnM9Imh0dHA6Ly93d3cudzMub3JnLzIwMDAvc3ZnIiB2aWV3Qm94PSIwIDAgMzIgMzIiIGhlaWdodD0iODAwcHgiIHdpZHRoPSI4MDBweCI+PGRlZnM+PGxpbmVhckdyYWRpZW50IGdyYWRpZW50VW5pdHM9InVzZXJTcGFjZU9uVXNlIiBncmFkaWVudFRyYW5zZm9ybT0idHJhbnNsYXRlKDI1MjQzLjA2MSAzODUxOS4xNykgc2NhbGUoMTg5LjM4IDE4OS44MSkiIHkyPSItMjAyLjg0IiB4Mj0iLTEzMy4xOTgiIHkxPSItMjAyLjkxIiB4MT0iLTEzMy4yNjgiIGlkPSJhIj48c3RvcCBzdG9wLWNvbG9yPSIjMzg3ZWI4IiBvZmZzZXQ9IjAiLz48c3RvcCBzdG9wLWNvbG9yPSIjMzY2OTk0IiBvZmZzZXQ9IjEiLz48L2xpbmVhckdyYWRpZW50PjxsaW5lYXJHcmFkaWVudCBncmFkaWVudFVuaXRzPSJ1c2VyU3BhY2VPblVzZSIgZ3JhZGllbnRUcmFuc2Zvcm09InRyYW5zbGF0ZSgyNTMwOS4wNjEgMzg1ODMuNDIpIHNjYWxlKDE4OS4zOCAxODkuODEpIiB5Mj0iLTIwMy4xMzMiIHgyPSItMTMzLjQ5NSIgeTE9Ii0yMDMuMjAzIiB4MT0iLTEzMy41NzUiIGlkPSJiIj48c3RvcCBzdG9wLWNvbG9yPSIjZmZlMDUyIiBvZmZzZXQ9IjAiLz48c3RvcCBzdG9wLWNvbG9yPSIjZmZjMzMxIiBvZmZzZXQ9IjEiLz48L2xpbmVhckdyYWRpZW50PjwvZGVmcz48dGl0bGU+ZmlsZV90eXBlX3B5dGhvbjwvdGl0bGU+PHBhdGggc3R5bGU9ImZpbGw6dXJsKCNhKSIgZD0iTTE1Ljg4NSwyLjFjLTcuMSwwLTYuNjUxLDMuMDctNi42NTEsMy4wN1Y4LjM2aDYuNzUydjFINi41NDVTMiw4LjgsMiwxNi4wMDVzNC4wMTMsNi45MTIsNC4wMTMsNi45MTJIOC4zM1YxOS41NTZzLS4xMy00LjAxMywzLjktNC4wMTNoNi43NjJzMy43NzIuMDYsMy43NzItMy42NTJWNS44cy41NzItMy43MTItNi44NDItMy43MTJoMFpNMTIuMTUzLDQuMjM3YTEuMjE0LDEuMjE0LDAsMSwxLTEuMTgzLDEuMjQ0di0uMDJhMS4yMTQsMS4yMTQsMCwwLDEsMS4yMTQtMS4yMTRoMFoiLz48cGF0aCBzdHlsZT0iZmlsbDp1cmwoI2IpIiBkPSJNMTYuMDg1LDI5LjkxYzcuMSwwLDYuNjUxLTMuMDgsNi42NTEtMy4wOFYyMy42NUgxNS45ODV2LTFoOS40N1MzMCwyMy4xNTgsMzAsMTUuOTk1cy00LjAxMy02LjkxMi00LjAxMy02LjkxMkgyMy42NFYxMi40cy4xMyw0LjAxMy0zLjksNC4wMTNIMTIuOTc1UzkuMiwxNi4zNTYsOS4yLDIwLjA2OFYyNi4ycy0uNTcyLDMuNzEyLDYuODQyLDMuNzEyaC4wNFptMy43MzItMi4xNDdBMS4yMTQsMS4yMTQsMCwxLDEsMjEsMjYuNTE5di4wM2ExLjIxNCwxLjIxNCwwLDAsMS0xLjIxNCwxLjIxNGguMDNaIi8+PC9zdmc+;" vertex="1" parent="1">
          <mxGeometry x="560" y="34.999999999999986" width="50" height="50" as="geometry" />
        </mxCell>
        <mxCell id="edd1Frih5Cjn2J8oHZLm-3" value="Web UI" style="outlineConnect=0;gradientColor=none;html=1;whiteSpace=wrap;fontSize=12;fontStyle=0;strokeColor=#858B94;fillColor=#eceef9;verticalAlign=top;align=center;fontColor=#858B94;dashed=1;spacingTop=3;" vertex="1" parent="1">
          <mxGeometry x="67.99" y="84.99999999999999" width="162.01" height="60.3" as="geometry" />
        </mxCell>
        <mxCell id="edd1Frih5Cjn2J8oHZLm-4" value="" style="image;points=[];aspect=fixed;html=1;align=center;shadow=0;dashed=0;image=img/lib/allied_telesis/computer_and_terminals/Personal_Computer.svg;" vertex="1" parent="1">
          <mxGeometry x="187" y="102.3" width="25.6" height="34.7" as="geometry" />
        </mxCell>
      </root>
    </mxGraphModel>
  </diagram>
</mxfile>
